<?xml version="1.0" encoding="UTF-8" standalone="no"?>
<!DOCTYPE svg PUBLIC "-//W3C//DTD SVG 1.1//EN"
 "http://www.w3.org/Graphics/SVG/1.1/DTD/svg11.dtd">
<!-- Generated by graphviz version 2.43.0 (0)
 -->
<!-- Title: root Pages: 1 -->
<svg width="475pt" height="520pt"
 viewBox="0.00 0.00 474.84 520.00" xmlns="http://www.w3.org/2000/svg" xmlns:xlink="http://www.w3.org/1999/xlink">
<g id="graph0" class="graph" transform="scale(1 1) rotate(0) translate(4 516)">
<title>root</title>
<polygon fill="white" stroke="transparent" points="-4,4 -4,-516 470.84,-516 470.84,4 -4,4"/>
<!-- Eq -->
<g id="node1" class="node">
<title>Eq</title>
<ellipse fill="none" stroke="black" cx="151.09" cy="-494" rx="27" ry="18"/>
<text text-anchor="middle" x="151.09" y="-490.3" font-family="Times,serif" font-size="14.00">Eq</text>
</g>
<!-- Ord -->
<g id="node2" class="node">
<title>Ord</title>
<ellipse fill="none" stroke="black" cx="151.09" cy="-422" rx="28.7" ry="18"/>
<text text-anchor="middle" x="151.09" y="-418.3" font-family="Times,serif" font-size="14.00">Ord</text>
</g>
<!-- Eq&#45;&gt;Ord -->
<g id="edge1" class="edge">
<title>Eq&#45;&gt;Ord</title>
<path fill="none" stroke="black" d="M151.19,-475.7C151.19,-467.98 151.19,-458.71 151.19,-450.11"/>
<polygon fill="black" stroke="black" points="154.69,-450.1 151.19,-440.1 147.69,-450.1 154.69,-450.1"/>
</g>
<!-- Real -->
<g id="node3" class="node">
<title>Real</title>
<ellipse fill="none" stroke="black" cx="151.09" cy="-350" rx="31.4" ry="18"/>
<text text-anchor="middle" x="151.09" y="-346.3" font-family="Times,serif" font-size="14.00">Real</text>
</g>
<!-- Ord&#45;&gt;Real -->
<g id="edge2" class="edge">
<title>Ord&#45;&gt;Real</title>
<path fill="none" stroke="black" d="M151.19,-403.7C151.19,-395.98 151.19,-386.71 151.19,-378.11"/>
<polygon fill="black" stroke="black" points="154.69,-378.1 151.19,-368.1 147.69,-378.1 154.69,-378.1"/>
</g>
<!-- Integral -->
<g id="node4" class="node">
<title>Integral</title>
<ellipse fill="none" stroke="black" cx="48.1" cy="-278" rx="48.19" ry="18"/>
<text text-anchor="middle" x="48.1" y="-274.3" font-family="Times,serif" font-size="14.00">Integral</text>
</g>
<!-- Real&#45;&gt;Integral -->
<g id="edge3" class="edge">
<title>Real&#45;&gt;Integral</title>
<path fill="none" stroke="black" d="M131.81,-335.83C116.92,-325.72 96.08,-311.55 78.92,-299.89"/>
<polygon fill="black" stroke="black" points="80.58,-296.78 70.34,-294.05 76.64,-302.57 80.58,-296.78"/>
</g>
<!-- RealFrac -->
<g id="node5" class="node">
<title>RealFrac</title>
<ellipse fill="none" stroke="black" cx="166.09" cy="-278" rx="52" ry="18"/>
<text text-anchor="middle" x="166.09" y="-274.3" font-family="Times,serif" font-size="14.00">RealFrac</text>
</g>
<!-- Real&#45;&gt;RealFrac -->
<g id="edge4" class="edge">
<title>Real&#45;&gt;RealFrac</title>
<path fill="none" stroke="black" d="M154.82,-332.05C156.49,-324.26 158.51,-314.82 160.38,-306.08"/>
<polygon fill="black" stroke="black" points="163.81,-306.79 162.48,-296.28 156.96,-305.32 163.81,-306.79"/>
</g>
<!-- RealFloat -->
<g id="node6" class="node">
<title>RealFloat</title>
<ellipse fill="none" stroke="black" cx="225.09" cy="-206" rx="55.49" ry="18"/>
<text text-anchor="middle" x="225.09" y="-202.3" font-family="Times,serif" font-size="14.00">RealFloat</text>
</g>
<!-- RealFrac&#45;&gt;RealFloat -->
<g id="edge5" class="edge">
<title>RealFrac&#45;&gt;RealFloat</title>
<path fill="none" stroke="black" d="M180.17,-260.41C187.52,-251.69 196.66,-240.84 204.78,-231.21"/>
<polygon fill="black" stroke="black" points="207.54,-233.37 211.3,-223.47 202.18,-228.86 207.54,-233.37"/>
</g>
<!-- Num -->
<g id="node7" class="node">
<title>Num</title>
<ellipse fill="none" stroke="black" cx="244.09" cy="-422" rx="33.29" ry="18"/>
<text text-anchor="middle" x="244.09" y="-418.3" font-family="Times,serif" font-size="14.00">Num</text>
</g>
<!-- Num&#45;&gt;Real -->
<g id="edge6" class="edge">
<title>Num&#45;&gt;Real</title>
<path fill="none" stroke="black" d="M225.37,-406.83C211.57,-396.45 192.67,-382.23 177.4,-370.73"/>
<polygon fill="black" stroke="black" points="179.44,-367.88 169.34,-364.67 175.23,-373.48 179.44,-367.88"/>
</g>
<!-- Fractional -->
<g id="node8" class="node">
<title>Fractional</title>
<ellipse fill="none" stroke="black" cx="258.09" cy="-350" rx="58" ry="18"/>
<text text-anchor="middle" x="258.09" y="-346.3" font-family="Times,serif" font-size="14.00">Fractional</text>
</g>
<!-- Num&#45;&gt;Fractional -->
<g id="edge7" class="edge">
<title>Num&#45;&gt;Fractional</title>
<path fill="none" stroke="black" d="M247.57,-404.05C249.12,-396.35 250.98,-387.03 252.71,-378.36"/>
<polygon fill="black" stroke="black" points="256.2,-378.77 254.73,-368.28 249.33,-377.4 256.2,-378.77"/>
</g>
<!-- Fractional&#45;&gt;RealFrac -->
<g id="edge8" class="edge">
<title>Fractional&#45;&gt;RealFrac</title>
<path fill="none" stroke="black" d="M237.31,-333.12C224.75,-323.56 208.59,-311.27 194.85,-300.81"/>
<polygon fill="black" stroke="black" points="196.74,-297.85 186.66,-294.58 192.5,-303.42 196.74,-297.85"/>
</g>
<!-- Floating -->
<g id="node9" class="node">
<title>Floating</title>
<ellipse fill="none" stroke="black" cx="285.09" cy="-278" rx="49.5" ry="18"/>
<text text-anchor="middle" x="285.09" y="-274.3" font-family="Times,serif" font-size="14.00">Floating</text>
</g>
<!-- Fractional&#45;&gt;Floating -->
<g id="edge9" class="edge">
<title>Fractional&#45;&gt;Floating</title>
<path fill="none" stroke="black" d="M264.72,-332.05C267.76,-324.18 271.45,-314.62 274.85,-305.79"/>
<polygon fill="black" stroke="black" points="278.19,-306.87 278.52,-296.28 271.66,-304.35 278.19,-306.87"/>
</g>
<!-- Floating&#45;&gt;RealFloat -->
<g id="edge10" class="edge">
<title>Floating&#45;&gt;RealFloat</title>
<path fill="none" stroke="black" d="M270.97,-260.41C263.49,-251.69 254.2,-240.84 245.94,-231.21"/>
<polygon fill="black" stroke="black" points="248.47,-228.78 239.3,-223.47 243.16,-233.34 248.47,-228.78"/>
</g>
<!-- Enum -->
<g id="node10" class="node">
<title>Enum</title>
<ellipse fill="none" stroke="black" cx="48.1" cy="-350" rx="38.5" ry="18"/>
<text text-anchor="middle" x="48.1" y="-346.3" font-family="Times,serif" font-size="14.00">Enum</text>
</g>
<!-- Enum&#45;&gt;Integral -->
<g id="edge11" class="edge">
<title>Enum&#45;&gt;Integral</title>
<path fill="none" stroke="black" d="M48.19,-331.7C48.19,-323.98 48.19,-314.71 48.19,-306.11"/>
<polygon fill="black" stroke="black" points="51.69,-306.1 48.19,-296.1 44.69,-306.1 51.69,-306.1"/>
</g>
<!-- Functor -->
<g id="node11" class="node">
<title>Functor</title>
<ellipse fill="none" stroke="black" cx="167.09" cy="-162" rx="47.5" ry="18"/>
<text text-anchor="middle" x="167.09" y="-158.3" font-family="Times,serif" font-size="14.00">Functor</text>
</g>
<!-- Applicative -->
<g id="node12" class="node">
<title>Applicative</title>
<ellipse fill="none" stroke="black" cx="167.09" cy="-90" rx="62.5" ry="18"/>
<text text-anchor="middle" x="167.09" y="-86.3" font-family="Times,serif" font-size="14.00">Applicative</text>
</g>
<!-- Functor&#45;&gt;Applicative -->
<g id="edge12" class="edge">
<title>Functor&#45;&gt;Applicative</title>
<path fill="none" stroke="black" d="M167.49,-143.7C167.49,-135.98 167.49,-126.71 167.49,-118.11"/>
<polygon fill="black" stroke="black" points="170.99,-118.1 167.49,-108.1 163.99,-118.1 170.99,-118.1"/>
</g>
<!-- Monad -->
<g id="node13" class="node">
<title>Monad</title>
<ellipse fill="none" stroke="black" cx="167.09" cy="-18" rx="42.49" ry="18"/>
<text text-anchor="middle" x="167.09" y="-14.3" font-family="Times,serif" font-size="14.00">Monad</text>
</g>
<!-- Applicative&#45;&gt;Monad -->
<g id="edge13" class="edge">
<title>Applicative&#45;&gt;Monad</title>
<path fill="none" stroke="black" d="M167.49,-71.7C167.49,-63.98 167.49,-54.71 167.49,-46.11"/>
<polygon fill="black" stroke="black" points="170.99,-46.1 167.49,-36.1 163.99,-46.1 170.99,-46.1"/>
</g>
<!-- Semigroup -->
<g id="node14" class="node">
<title>Semigroup</title>
<ellipse fill="none" stroke="black" cx="405.09" cy="-126" rx="61.99" ry="18"/>
<text text-anchor="middle" x="405.09" y="-122.3" font-family="Times,serif" font-size="14.00">Semigroup</text>
</g>
<!-- Monoid -->
<g id="node15" class="node">
<title>Monoid</title>
<ellipse fill="none" stroke="black" cx="405.09" cy="-54" rx="45.5" ry="18"/>
<text text-anchor="middle" x="405.09" y="-50.3" font-family="Times,serif" font-size="14.00">Monoid</text>
</g>
<!-- Semigroup&#45;&gt;Monoid -->
<g id="edge14" class="edge">
<title>Semigroup&#45;&gt;Monoid</title>
<path fill="none" stroke="black" d="M404.84,-107.7C404.84,-99.98 404.84,-90.71 404.84,-82.11"/>
<polygon fill="black" stroke="black" points="408.34,-82.1 404.84,-72.1 401.34,-82.1 408.34,-82.1"/>
</g>
<!-- Foldable -->
<g id="node16" class="node">
<title>Foldable</title>
<ellipse fill="none" stroke="black" cx="405.09" cy="-458" rx="50.09" ry="18"/>
<text text-anchor="middle" x="405.09" y="-454.3" font-family="Times,serif" font-size="14.00">Foldable</text>
</g>
<!-- Show -->
<g id="node17" class="node">
<title>Show</title>
<ellipse fill="none" stroke="black" cx="405.09" cy="-386" rx="36.5" ry="18"/>
<text text-anchor="middle" x="405.09" y="-382.3" font-family="Times,serif" font-size="14.00">Show</text>
</g>
<!-- Foldable&#45;&gt;Show -->
<!-- Read -->
<g id="node18" class="node">
<title>Read</title>
<ellipse fill="none" stroke="black" cx="405.09" cy="-314" rx="34.5" ry="18"/>
<text text-anchor="middle" x="405.09" y="-310.3" font-family="Times,serif" font-size="14.00">Read</text>
</g>
<!-- Show&#45;&gt;Read -->
<!-- Bounded -->
<g id="node19" class="node">
<title>Bounded</title>
<ellipse fill="none" stroke="black" cx="405.09" cy="-242" rx="52" ry="18"/>
<text text-anchor="middle" x="405.09" y="-238.3" font-family="Times,serif" font-size="14.00">Bounded</text>
</g>
<!-- Read&#45;&gt;Bounded -->
</g>
</svg>
